<?xml version="1.0" encoding="UTF-8"?>
<svg width="465px" height="300px" viewBox="0 0 465 300" version="1.1" xmlns="http://www.w3.org/2000/svg" xmlns:xlink="http://www.w3.org/1999/xlink">
    <!-- Generator: sketchtool 53 (72520) - https://sketchapp.com -->
    <title>57F4B85B-4A78-4522-B65C-0F80CD8631A4</title>
    <desc>Created with sketchtool.</desc>
    <defs>
        <polygon id="path-1" points="0 4.87179495e-05 113.999903 4.87179495e-05 113.999903 114 0 114"></polygon>
    </defs>
    <g id="Page-1" stroke="none" stroke-width="1" fill="none" fill-rule="evenodd">
        <g id="brand-guidelines-page-03-part1" transform="translate(-108.000000, -8817.000000)">
            <g id="our-symbol-slate" transform="translate(108.000000, 8817.000000)">
                <path d="M0.5,0.5 L0.5,299.5 L464.5,299.5 L464.5,0.5 L0.5,0.5 Z" id="Rectangle-Copy-2" stroke="#979797" opacity="0.300000012"></path>
                <g id="Group-8" transform="translate(176.000000, 93.000000)">
                    <g id="Group-3">
                        <mask id="mask-2" fill="white">
                            <use xlink:href="#path-1"></use>
                        </mask>
                        <g id="Clip-2"></g>
                        <path d="M99.3845179,114.000049 L14.6152872,114.000049 C6.54369744,114.000049 -9.74358973e-05,107.456254 -9.74358973e-05,99.3846641 L-9.74358973e-05,14.6154333 C-9.74358973e-05,6.54384359 6.54369744,4.87179495e-05 14.6152872,4.87179495e-05 L99.3845179,4.87179495e-05 C107.456108,4.87179495e-05 113.999903,6.54384359 113.999903,14.6154333 L113.999903,99.3846641 C113.999903,107.456254 107.456108,114.000049 99.3845179,114.000049" id="Fill-1" fill="#1D1C39" mask="url(#mask-2)"></path>
                    </g>
                    <path d="M56.2210974,50.0082436 C59.3760718,50.0082436 61.1849692,48.2889872 61.1849692,45.2899103 C61.1849692,42.4676795 59.2396615,40.5720641 56.3438667,40.5720641 L49.1867128,40.5720641 L49.1867128,35.2725256 C49.1867128,31.4496282 46.4429179,29.4502436 43.7317641,29.4502436 C41.0210974,29.4502436 38.2763282,31.4496282 38.2763282,35.2725256 L38.2763282,71.8260897 C38.2763282,80.6109103 41.7776872,84.5288077 49.6285846,84.5288077 C53.8826359,84.5288077 56.3151231,83.4355769 58.1220718,82.3725513 C59.5046872,81.6037821 59.9972256,79.9741667 59.9972256,78.7045769 C59.9972256,76.3544231 58.4250974,73.7363205 56.1694564,73.7363205 C55.8566872,73.7363205 55.5409949,73.7889359 55.2009436,73.9029359 C55.0820718,73.9511667 54.949559,74.0110897 54.8029179,74.0788077 C54.2090462,74.3516282 53.3964308,74.7248077 52.2077128,74.7248077 C50.8012256,74.7248077 49.1867128,74.2278846 49.1867128,70.3523718 L49.1867128,50.0082436 L56.2210974,50.0082436 Z" id="Fill-4" fill="#FFFFFF"></path>
                    <path d="M79.6332872,65.4105692 C74.3571333,65.4105692 70.0641077,69.7035949 70.0641077,74.9802359 C70.0641077,80.2568769 74.3571333,84.5499026 79.6332872,84.5499026 C84.9099282,84.5499026 89.2029538,80.2568769 89.2029538,74.9802359 C89.2029538,69.7035949 84.9099282,65.4105692 79.6332872,65.4105692" id="Fill-6" fill="#FF22B1"></path>
                </g>
            </g>
        </g>
    </g>
</svg>